<?xml version="1.0" encoding="utf-8"?>
<!-- Generator: Adobe Illustrator 25.2.1, SVG Export Plug-In . SVG Version: 6.00 Build 0)  -->
<svg version="1.1" id="Слой_1" xmlns="http://www.w3.org/2000/svg" xmlns:xlink="http://www.w3.org/1999/xlink" x="0px" y="0px"
	 viewBox="0 0 250 100" style="enable-background:new 0 0 250 100;" xml:space="preserve">
<g>
	<path d="M30.6,48.7l5.7,12.9h-9.5l-5.1-11.5l-6.3,17.2H8.2l11.5-31.6H27l-4.2,11.5l13.4-11.5h9.5L30.6,48.7z"/>
	<path d="M65.8,35.7h7.7l-6.4,17.6c-0.3,0.9-0.8,1.9-1.4,2.9s-1.3,1.9-2.1,2.7c-0.8,0.8-1.6,1.5-2.5,2s-1.7,0.8-2.6,0.8H43.6
		c-0.8,0-1.5-0.3-2-0.8s-0.9-1.2-1.1-2s-0.3-1.7-0.2-2.7s0.3-1.9,0.6-2.9l6.4-17.6H55l-6.5,18c-0.1,0.2-0.1,0.4-0.1,0.5
		s0.1,0.2,0.4,0.2h9.6c0.3,0,0.5-0.1,0.6-0.2c0.1-0.1,0.2-0.3,0.3-0.5L65.8,35.7z"/>
	<path d="M101.8,35.7l-15.1,13l5.7,12.9h-9.5l-5.1-11.5l-4.2,11.5h-7.3l9.4-25.9H83l-4.2,11.5l13.4-11.5
		C92.2,35.7,101.8,35.7,101.8,35.7z"/>
	<path d="M121.9,35.7h7.7l-6.4,17.6c-0.3,0.9-0.8,1.9-1.4,2.9s-1.3,1.9-2.1,2.7c-0.8,0.8-1.6,1.5-2.5,2s-1.7,0.8-2.6,0.8H99.7
		c-0.8,0-1.5-0.3-2-0.8s-0.9-1.2-1.1-2s-0.3-1.7-0.2-2.7s0.3-1.9,0.6-2.9l6.4-17.6h7.7l-6.5,18c-0.1,0.2-0.1,0.4-0.1,0.5
		s0.1,0.2,0.4,0.2h9.6c0.3,0,0.5-0.1,0.6-0.2c0.1-0.1,0.2-0.3,0.3-0.5L121.9,35.7z"/>
	<path d="M154.3,35.7c0.8,0,1.4,0.3,1.9,0.8s0.8,1.2,1,2.1c0.2,0.8,0.2,1.7,0.1,2.7c-0.1,1-0.3,1.9-0.6,2.8c-0.4,1.2-1,2.3-1.7,3.3
		s-1.5,1.9-2.3,2.6c-0.9,0.7-1.8,1.3-2.8,1.8s-2,0.8-3,0.9l-0.2,0.3l4.4,8.6h-10.6l-5.1-10.2l2.3-6.3h10.6c0.2,0,0.4-0.1,0.6-0.4
		c0.2-0.3,0.3-0.5,0.4-0.7c0.1-0.3,0.1-0.5,0.1-0.8c-0.1-0.3-0.2-0.4-0.4-0.4h-12.1l-6.8,18.8h-7.3l9.4-25.9
		C132.2,35.7,154.3,35.7,154.3,35.7z"/>
	<path d="M180.5,35.7h7.7l-6.4,17.6c-0.3,0.9-0.8,1.9-1.4,2.9c-0.6,1-1.3,1.9-2.1,2.7s-1.6,1.5-2.5,2s-1.7,0.8-2.6,0.8h-14.9
		c-0.8,0-1.5-0.3-2-0.8s-0.9-1.2-1.1-2c-0.2-0.8-0.3-1.7-0.2-2.7s0.3-1.9,0.6-2.9l6.4-17.6h7.7l-6.5,18c-0.1,0.2-0.1,0.4-0.1,0.5
		s0.1,0.2,0.4,0.2h9.6c0.3,0,0.5-0.1,0.6-0.2c0.1-0.1,0.2-0.3,0.3-0.5L180.5,35.7z"/>
	<path d="M216.6,35.7l-15.1,13l5.7,12.9h-9.5l-5.1-11.5l-4.2,11.5h-7.3l9.4-25.9h7.3l-4.2,11.5L207,35.7
		C207,35.7,216.6,35.7,216.6,35.7z"/>
	<path d="M208.2,61.6L230,35.7h7.1l3.3,25.9h-17.7l-1-6l-5.2,6H208.2z M222.8,54.3h8l-1.2-8L222.8,54.3z"/>
</g>
</svg>
